<?xml version="1.0" encoding="utf-8"?>
<!-- Generator: Adobe Illustrator 25.4.1, SVG Export Plug-In . SVG Version: 6.00 Build 0)  -->
<svg version="1.1" id="Layer_1" xmlns="http://www.w3.org/2000/svg" xmlns:xlink="http://www.w3.org/1999/xlink" x="0px" y="0px"
	 viewBox="0 0 412 206" style="enable-background:new 0 0 412 206;" xml:space="preserve">
<style type="text/css">
	.st0{fill:#FFFFFF;}
</style>
<g>
	<g>
		<path class="st0" d="M408.7,128.3c-5.3-0.6-11-0.8-16.9-1c-66.1-3.3-175.6,0.4-269.6,18.2c15.3-16.1,26.1-34.8,34.3-57.4
			c13-2.4,24.7-3.2,30.1,2.8c4.6,5.1-2.1,19.2-3.1,22.5c-0.7,2.2,9.7,1.3,10.4-0.3c3.8-8.6,11.3-21.5,22.4-19.9
			c8.4,1.2,2.3,11.9,1.7,18.2c-0.1,1.1,9.5,1.3,10.7-0.6c3.2-4.9,10.3-20.6,21.6-18.7c8.3,1.4-0.5,12.4,1.7,17.3
			c1.3,2.9,7.3,1.5,9.7,0.6c5.1-2,9.6-5,11.7-6.4c0.2,0.6,0.5,1.2,1,1.7c5.9,7,26.3,1.7,33-8.7h0.2c-1.3,7.7,6.4,16.5,22.8,18.1
			c24.4,2.3,59.3-9.6,80-25.6c0.3-0.2,0.4-0.4,0.3-0.7c0-0.2-0.1-0.6-0.1-0.6c-31.8,21.4-64.4,27-81.9,22.4
			c-8-2.1-14.8-8.6-11.2-20.8c0.1-0.3-0.1-0.5-0.3-0.6c-1.1-0.2-3.7-0.5-6.1-0.1c-1.4,0.3-2.6,1-3.4,2.5
			c-6.9,12.3-23.5,13.9-26.3,10.8c-3.2-3.5,8.4-19.2,32.6-16.3c0.1,0,0.6,0.1,0.8-0.1c0.4-0.2,0.5-0.3,0.5-0.3
			c0.1-0.1,0-0.2-0.1-0.2c-15.6-3.9-33.5,1.8-39.2,8.7c-2.3,2.8-3.2,5.6-3,7.9c-4.9,3.5-10,5.2-10.7,4.4c-1-1.2,8.1-14.5-6-17.2
			c-9.7-1.9-19.2,4.2-25,10.9l-0.1,0c0-5-2.8-9.5-11.6-9.9c-9.2-0.4-15.1,3-21.2,8.3l-0.1,0c-0.1-3.3-1.4-7.1-4.1-9.5
			c-7-6.2-19.8-5.5-37-2.2c7.6-21.4,13.1-46.2,18-75.4c0.9-4.1,2.4-9.2,0.3-10.5c-1.9-1.2-4.9-0.7-7,0.2c-3.7,1.6-7.1,5.5-9.8,11.1
			c0.1-0.1,0.4,0.2,0.6,0.1c2.4-3.1,4.5-4.2,5.3-4.1c0.7,0.1,0.5,2,0.3,3c0,0,0,0.1,0,0.1c0,0.3-0.1,0.5-0.1,0.5s0,0,0,0
			c-3.2,20.9-8.4,50.3-17.8,76.6C28.6,111.5,0,141.9,0,162c0,8.3,4.4,15.1,12.4,19.3c6,3.1,13.7,4.6,22.4,4.6c21,0,48.1-8,69.3-24.1
			c5.3-4.1,10.3-8.3,14.8-12.8c95.3-18.6,207.7-23,274.3-19.7c2.3,0.2,4.6,0.3,7,0.5c2.5,0.2,3.6,0.9,5.1,1.4
			c1.3,0.4,2.9,0.6,4.1,0.3c1.2-0.4,2.5-1.5,2.5-2C412,128.9,409.7,128.4,408.7,128.3z M103.5,156.9c-17.3,14.7-33.7,20.8-47.1,23.1
			c-23.5,4-35.2-0.9-40.3-4.6c-5.4-3.9-7.1-8.3-6.7-13.4c1.3-14.1,19.8-48.2,136.7-72.1c0,0,0,0,0,0c-9,24.5-20.9,43.8-32.9,57.2
			c-15.4,3.1-30.3,6.6-44.4,10.5c-1.8,0.5-3.1,1.5-3.2,3.4l0,0.4c14.1-4,28.9-7.5,44.3-10.7C107.8,153,105.7,155,103.5,156.9z"/>
		<path class="st0" d="M192.8,19c0.1,0.2,0.2,0.2,0.5,0.1c3.1-1.2,6-3.6,7.5-7.6c0.9-2.4,1.1-4.9,0.8-7.2c-0.7-4.2-3.2-5.1-5.6-3.4
			c-1.7,1.2-1.9,3-1.1,4.5C198.8,13.5,196.6,16.9,192.8,19z"/>
		<path class="st0" d="M288.9,64.3c2.8,1.4,6.7,2.1,12.3,2.1c8.5,0,20.6-3.1,39.8-11.7c0.5-0.2,0.1-0.7,0.1-0.7
			c-33.9,13.7-43.7,9.6-47.9,5.9c-0.3-0.3-0.8-0.2-1.1-0.1c-0.3,0.1-2.6,0.8-3.7,1.9C287.6,62.5,287.7,63.7,288.9,64.3z"/>
	</g>
	<g>
		<path class="st0" d="M163.7,205.4H160v-25.3h9.9c6.5,0,10.1,2.7,10.1,7.6c0,3.8-2.1,6.2-6,7.1v0.9l7,9.6h-4.5l-7.2-10.1h-5.5
			V205.4z M164.9,183.5l-1.2,1.2v7.1h6.1c4.3,0,6.4-1.5,6.4-4.1c0-2.7-2-4.2-6.4-4.2H164.9z"/>
		<path class="st0" d="M207.5,198h-11.1l-2.8,7.4h-4l10-25.3h4.7l10,25.3h-4L207.5,198z M205.2,194.7l0.8-0.8l-3.5-9.1h-1.2
			l-3.5,9.1l0.7,0.7H205.2z"/>
		<path class="st0" d="M224.8,205.4v-25.3h7c8.9,0,13.7,5.4,13.7,12.6c0,7.2-4.8,12.6-13.7,12.6H224.8z M228.5,200.8l1.2,1.2h2.1
			c6.6,0,9.8-4,9.8-9.3c0-5.3-3.2-9.3-9.8-9.3h-2.1l-1.2,1.2V200.8z"/>
		<path class="st0" d="M266.5,201.9h6.1v3.5h-18.1v-3.5h6l1.2-1.2v-16l-1.2-1.2h-6v-3.4h18.1v3.4h-6.1l-1.2,1.2v16L266.5,201.9z"/>
		<path class="st0" d="M293.3,206c-7,0-11.4-5.9-11.4-13.3c0-7.4,4.4-13.3,11.4-13.3c7,0,11.4,5.8,11.4,13.3
			C304.8,200.1,300.3,206,293.3,206z M293.3,183c-5,0-7.5,4.4-7.5,9.8s2.5,9.7,7.5,9.7c5,0,7.5-4.3,7.5-9.7S298.3,183,293.3,183z"/>
	</g>
</g>
</svg>
