<?xml version="1.0" encoding="utf-8"?>
<!-- Generator: Adobe Illustrator 25.4.1, SVG Export Plug-In . SVG Version: 6.00 Build 0)  -->
<svg version="1.1" id="Layer_1" xmlns="http://www.w3.org/2000/svg" xmlns:xlink="http://www.w3.org/1999/xlink" x="0px" y="0px"
	 viewBox="0 0 42 42" style="enable-background:new 0 0 42 42;" xml:space="preserve">
<style type="text/css">
	.st0{fill:#8C8C8C;}
</style>
<path class="st0" d="M21,0C9.4,0,0,9.4,0,21c0,11.6,9.4,21,21,21c11.6,0,21-9.4,21-21C42,9.4,32.6,0,21,0z M39.4,19.7h-9
	c-0.2-7.1-1.9-13.1-4.4-16.4C33.3,5.3,38.8,11.8,39.4,19.7z M21,39.4c-3.1,0-6.5-7.1-6.7-17.1h13.5C27.5,32.3,24.1,39.4,21,39.4z
	 M14.3,19.7c0.3-10,3.7-17.1,6.7-17.1s6.5,7.1,6.7,17.1H14.3z M16.1,3.3c-2.5,3.4-4.2,9.3-4.4,16.4h-9C3.2,11.8,8.7,5.3,16.1,3.3z
	 M2.6,22.3h9c0.2,7.1,1.9,13.1,4.4,16.4C8.7,36.7,3.2,30.2,2.6,22.3z M25.9,38.7c2.5-3.4,4.2-9.3,4.4-16.4h9
	C38.8,30.2,33.3,36.7,25.9,38.7z"/>
</svg>
